<svg width="268" height="67" viewBox="0 0 268 67" fill="none" xmlns="http://www.w3.org/2000/svg">
<path fill-rule="evenodd" clip-rule="evenodd" d="M40.8766 0.034841C40.8861 0.0443409 40.8945 0.0556151 40.903 0.0679297C40.9086 0.0774296 40.9114 0.0897373 40.9114 0.104867C40.9058 1.53371 40.9128 15.1132 40.9317 40.8434C40.9321 40.9328 40.8594 41.0056 40.7699 41.0056L23.7386 41.02C23.6624 41.02 23.601 40.9585 23.601 40.8821C23.5926 32.3051 23.5884 24.5131 23.5884 17.5061C23.5884 17.4871 23.5859 17.4727 23.5806 17.4632C23.5722 17.4495 23.562 17.4364 23.5498 17.4241C23.5375 17.4118 23.5245 17.4016 23.5108 17.3932C23.5013 17.3879 23.4869 17.3851 23.468 17.3851C16.477 17.3946 8.70292 17.4009 0.145317 17.4034C0.0698442 17.4034 0.00805605 17.3418 0.00805605 17.2658L0 0.195268C0 0.105547 0.0723001 0.0330887 0.161464 0.0330887C25.8329 0.0179593 39.3809 0.00668508 40.8068 0C40.8219 0 40.8341 0.00283126 40.8436 0.00810896C40.8559 0.0165533 40.8668 0.0253412 40.8766 0.034841ZM127.134 44.4396H123.759V53.2157H121.723V44.4396H118.348V42.6367H127.134V44.4396ZM128.487 42.6367H130.523V46.3617H132.545C133.08 46.3617 133.571 46.4363 134.031 46.5852C134.477 46.7344 134.864 46.9578 135.191 47.241C135.518 47.5239 135.77 47.8817 135.949 48.2986C136.127 48.7307 136.216 49.2078 136.216 49.7588C136.216 50.3102 136.127 50.8021 135.949 51.2341C135.77 51.6662 135.518 52.0237 135.205 52.3069C134.879 52.6049 134.492 52.8283 134.061 52.9772C133.615 53.1411 133.14 53.2157 132.619 53.2157H128.487V42.6367ZM130.523 51.4723H132.426C133.006 51.4723 133.437 51.3235 133.719 51.0107C134.002 50.6975 134.15 50.2806 134.15 49.744C134.15 49.2374 134.002 48.8205 133.704 48.4925C133.407 48.1797 132.976 48.0158 132.426 48.0158H130.523V51.4723ZM143.203 53.2157V49.2972H141.523L139.145 53.2157H136.885L139.472 49.0439C138.863 48.7906 138.387 48.4032 138.016 47.8518C137.643 47.3005 137.465 46.6745 137.465 45.9596C137.465 45.5124 137.554 45.0955 137.718 44.6929C137.882 44.2908 138.119 43.9481 138.417 43.6353C138.714 43.3222 139.071 43.084 139.487 42.9052C139.888 42.7261 140.334 42.6367 140.825 42.6367H145.24V53.2157H143.203ZM143.203 44.3949H141.048C140.855 44.3949 140.662 44.4248 140.483 44.4994C140.305 44.5737 140.141 44.6782 140.007 44.8122C139.859 44.9463 139.74 45.1102 139.665 45.3041C139.576 45.4976 139.532 45.721 139.532 45.9596C139.532 46.4363 139.681 46.8237 139.963 47.107C140.245 47.3899 140.587 47.539 141.003 47.539H143.203V44.3949ZM156.404 42.6367V53.2157H154.367V48.7012H149.58V53.2157H147.529V42.6367H149.58V46.9131H154.367V42.6367H156.404ZM158.693 42.6367H160.73V46.3617H162.751C163.286 46.3617 163.778 46.4363 164.238 46.5852C164.684 46.7344 165.071 46.9578 165.398 47.241C165.725 47.5239 165.977 47.8817 166.156 48.2986C166.334 48.7307 166.423 49.2078 166.423 49.7588C166.423 50.3102 166.334 50.8021 166.156 51.2341C165.977 51.6662 165.725 52.0237 165.413 52.3069C165.085 52.6049 164.699 52.8283 164.268 52.9772C163.822 53.1411 163.346 53.2157 162.826 53.2157H158.693V42.6367ZM167.701 53.2157V42.6519H169.753V53.2157H167.701ZM160.73 51.4723H162.632C163.212 51.4723 163.643 51.3235 163.926 51.0107C164.209 50.6975 164.357 50.2806 164.357 49.744C164.357 49.2374 164.209 48.8205 163.911 48.4925C163.614 48.1797 163.183 48.0158 162.632 48.0158H160.73V51.4723ZM183.459 44.4396H180.085V53.2157H178.048V44.4396H174.673V42.6367H183.459V44.4396ZM186.848 50.0568L192.23 42.6367H193.791V53.2157H191.754V45.9596L186.447 53.2157H184.812V42.6367H186.848V50.0568ZM198.116 46.9877H198.949L202.16 42.6367H204.479L200.688 47.7473L204.821 53.2157H202.531L199.142 48.8352H198.116V53.2157H196.08V42.6367H198.116V46.9877ZM207.497 53.3199C207.392 53.3199 207.273 53.3198 207.14 53.3051C207.006 53.2903 206.872 53.2604 206.738 53.2305C206.605 53.201 206.471 53.1562 206.337 53.1116C206.203 53.0669 206.084 53.0071 205.98 52.9325L206.248 51.2341C206.352 51.2936 206.515 51.3534 206.708 51.4276C206.902 51.5022 207.095 51.5469 207.303 51.5469C207.586 51.5469 207.838 51.4575 208.061 51.2936C208.27 51.1296 208.448 50.8467 208.611 50.4147L204.732 42.6367H206.946L209.533 48.3433L211.942 42.6367H214.097L210.381 50.6828C210.158 51.1595 209.95 51.5617 209.741 51.8896C209.533 52.2323 209.325 52.5004 209.102 52.7091C208.879 52.9325 208.626 53.0817 208.373 53.171C208.121 53.2752 207.823 53.3199 207.497 53.3199ZM224.116 42.6367V53.2157H222.08V48.7012H217.293V53.2157H215.241V42.6367H217.293V46.9131H222.08V42.6367H224.116ZM230.88 53.2903C230.107 53.2903 229.409 53.1411 228.784 52.8283C228.145 52.5303 227.61 52.1282 227.163 51.6215C226.703 51.1296 226.361 50.5487 226.108 49.908C225.855 49.2673 225.736 48.5967 225.736 47.9264C225.736 47.2259 225.87 46.5405 226.138 45.8998C226.39 45.2591 226.762 44.6782 227.223 44.1863C227.684 43.6947 228.219 43.2926 228.859 42.9946C229.498 42.7113 230.182 42.5625 230.925 42.5625C231.683 42.5625 232.381 42.7114 233.02 43.0241C233.645 43.3373 234.18 43.7542 234.626 44.2609C235.072 44.7675 235.414 45.3488 235.667 45.9891C235.92 46.6298 236.039 47.2857 236.039 47.956C236.039 48.6565 235.905 49.3268 235.652 49.9675C235.4 50.6082 235.043 51.1743 234.582 51.6662C234.121 52.1577 233.586 52.5602 232.946 52.8431C232.307 53.1411 231.623 53.2903 230.88 53.2903ZM227.818 47.9264C227.818 48.388 227.892 48.8204 228.026 49.2525C228.16 49.6846 228.368 50.0568 228.636 50.3847C228.888 50.7127 229.215 50.9808 229.602 51.1743C229.973 51.3682 230.405 51.4723 230.895 51.4723C231.386 51.4723 231.832 51.3682 232.218 51.1595C232.589 50.966 232.917 50.6975 233.184 50.3549C233.437 50.0122 233.645 49.6399 233.779 49.2078C233.912 48.7906 233.972 48.3585 233.972 47.9264C233.972 47.4644 233.898 47.0324 233.764 46.6003C233.615 46.1682 233.407 45.7956 233.154 45.4677C232.887 45.1401 232.56 44.8717 232.188 44.6782C231.802 44.4843 231.371 44.3949 230.895 44.3949C230.405 44.3949 229.959 44.4994 229.572 44.6929C229.186 44.9016 228.859 45.1697 228.606 45.4976C228.353 45.8403 228.16 46.2129 228.026 46.6298C227.892 47.0623 227.818 47.4944 227.818 47.9264ZM245.984 50.4889C245.984 50.9361 245.894 51.3235 245.716 51.6662C245.537 52.0089 245.3 52.2918 244.987 52.5155C244.675 52.739 244.304 52.9177 243.903 53.037C243.486 53.1563 243.041 53.2157 242.58 53.2157H237.481V42.6367H243.13C243.501 42.6367 243.828 42.7113 244.126 42.8753C244.423 43.0393 244.675 43.2328 244.883 43.4861C245.092 43.7394 245.255 44.0374 245.374 44.3502C245.478 44.6782 245.537 45.0061 245.537 45.3337C245.537 45.8551 245.404 46.3318 245.151 46.779C244.898 47.241 244.512 47.5686 244.021 47.7924C244.631 47.9711 245.106 48.2839 245.463 48.7459C245.805 49.2078 245.984 49.7887 245.984 50.4889ZM243.917 50.1015C243.917 49.908 243.888 49.7293 243.828 49.5505C243.754 49.3866 243.665 49.2374 243.561 49.1033C243.457 48.9693 243.323 48.8651 243.174 48.7905C243.026 48.716 242.862 48.6861 242.684 48.6861H239.532V51.4723H242.58C242.773 51.4723 242.951 51.4428 243.115 51.3682C243.278 51.2936 243.412 51.2042 243.531 51.0702C243.65 50.9509 243.739 50.802 243.813 50.6381C243.888 50.4741 243.917 50.2954 243.917 50.1015ZM239.532 44.3949V47.0623H242.268C242.609 47.0623 242.907 46.943 243.16 46.7044C243.397 46.4662 243.516 46.1383 243.516 45.721C243.516 45.3189 243.412 44.991 243.189 44.7528C242.966 44.5142 242.684 44.3949 242.357 44.3949H239.532ZM252.257 53.2903C251.484 53.2903 250.785 53.1411 250.161 52.8283C249.522 52.5303 248.987 52.1282 248.541 51.6215C248.08 51.1296 247.738 50.5487 247.485 49.908C247.233 49.2673 247.113 48.5967 247.113 47.9264C247.113 47.2259 247.247 46.5405 247.515 45.8998C247.768 45.2591 248.139 44.6782 248.6 44.1863C249.061 43.6947 249.596 43.2926 250.235 42.9946C250.874 42.7113 251.558 42.5625 252.301 42.5625C253.059 42.5625 253.758 42.7114 254.398 43.0241C255.022 43.3373 255.557 43.7542 256.003 44.2609C256.449 44.7675 256.791 45.3488 257.043 45.9891C257.296 46.6298 257.415 47.2857 257.415 47.956C257.415 48.6565 257.281 49.3268 257.029 49.9675C256.776 50.6082 256.419 51.1743 255.959 51.6662C255.498 52.1577 254.963 52.5602 254.324 52.8431C253.684 53.1411 253 53.2903 252.257 53.2903ZM249.195 47.9264C249.195 48.388 249.269 48.8204 249.403 49.2525C249.537 49.6846 249.745 50.0568 250.013 50.3847C250.265 50.7127 250.592 50.9808 250.978 51.1743C251.35 51.3682 251.781 51.4723 252.272 51.4723C252.762 51.4723 253.209 51.3682 253.595 51.1595C253.967 50.966 254.294 50.6975 254.561 50.3549C254.814 50.0122 255.022 49.6399 255.156 49.2078C255.29 48.7906 255.349 48.3585 255.349 47.9264C255.349 47.4644 255.275 47.0324 255.141 46.6003C254.992 46.1682 254.784 45.7956 254.531 45.4677C254.264 45.1401 253.937 44.8717 253.565 44.6782C253.178 44.4843 252.747 44.3949 252.272 44.3949C251.781 44.3949 251.335 44.4994 250.949 44.6929C250.562 44.9016 250.235 45.1697 249.983 45.4976C249.73 45.8403 249.537 46.2129 249.403 46.6298C249.269 47.0623 249.195 47.4944 249.195 47.9264ZM266.394 39.5676C266.394 39.8804 266.335 40.1485 266.201 40.4018C266.067 40.6552 265.874 40.8786 265.651 41.0573C265.428 41.2364 265.145 41.3705 264.833 41.4598C264.506 41.564 264.149 41.6087 263.763 41.6087C263.376 41.6087 263.02 41.564 262.693 41.4598C262.366 41.3705 262.083 41.2364 261.86 41.0573C261.637 40.8786 261.459 40.6552 261.325 40.4018C261.191 40.1485 261.117 39.8804 261.117 39.5676H262.336C262.336 39.7017 262.381 39.8209 262.455 39.9399C262.529 40.0591 262.633 40.1636 262.767 40.253C262.901 40.3423 263.049 40.417 263.213 40.4616C263.376 40.5063 263.57 40.5359 263.763 40.5359C264.134 40.5359 264.462 40.4465 264.714 40.253C264.967 40.0742 265.131 39.8505 265.175 39.5676H266.394ZM261.058 50.0568L266.439 42.6367H268V53.2157H265.963V45.9596L260.656 53.2157H259.021V42.6367H261.058V50.0568ZM113.295 42.6367H115.108L119.122 53.2157H117.011L116.03 50.5786H112.343L111.377 53.2157H109.266L113.295 42.6367ZM115.658 49.1332L114.201 44.9762L112.685 49.1332H115.658ZM110.025 44.4396H106.65V53.2157H104.614V44.4396H101.239V42.6367H110.025V44.4396ZM159.746 35.8046H159.982C160.127 35.7821 160.263 35.737 160.386 35.6695C160.509 35.6132 160.622 35.5122 160.734 35.3659C160.834 35.2195 160.936 35.0284 161.036 34.7698C161.126 34.5225 161.216 34.1963 161.306 33.7913C161.384 33.3976 161.463 32.9029 161.541 32.329C161.62 31.7555 161.687 31.0695 161.755 30.2711L161.923 28.3367H166.063V35.8046H167.107V38.4026H166.591V36.3218H160.263V38.4026H159.746V35.8046ZM165.492 35.8046V28.8539H162.45L162.327 30.3496C162.26 31.1708 162.181 31.9019 162.103 32.5205C162.024 33.1503 161.923 33.69 161.822 34.1288C161.71 34.5672 161.587 34.9271 161.441 35.197C161.295 35.4785 161.137 35.6807 160.947 35.8046H165.492ZM168.992 35.4672L174.221 28.3367H174.704V36.3218H174.132V29.3039L168.97 36.3218H168.42V28.3367H168.992V35.4672ZM181.178 36.3218V33.0151H178.788L176.802 36.3218H176.118L178.204 32.9029C177.7 32.7453 177.307 32.4642 177.015 32.0479C176.724 31.643 176.577 31.1708 176.577 30.6423C176.577 30.3387 176.634 30.0572 176.758 29.7761C176.881 29.4949 177.049 29.2476 177.262 29.034C177.476 28.8201 177.745 28.6515 178.059 28.5277C178.362 28.4042 178.71 28.3367 179.091 28.3367H181.751V36.3218H181.178ZM181.178 28.8539H179.114C178.833 28.8539 178.564 28.8989 178.328 28.989C178.093 29.0787 177.879 29.2025 177.711 29.3602C177.543 29.5287 177.408 29.7198 177.307 29.9337C177.206 30.1472 177.162 30.3834 177.162 30.6423C177.162 30.8897 177.206 31.1257 177.284 31.3506C177.363 31.5758 177.487 31.7668 177.644 31.9357C177.801 32.1042 177.991 32.2393 178.227 32.3403C178.463 32.4416 178.732 32.498 179.035 32.498H181.178V28.8539ZM153.406 28.8539H150.489V36.3218H149.917V28.8539H146.999V28.3367H153.406V28.8539ZM155.437 36.4119C155.292 36.4119 155.146 36.4006 155 36.3669C154.854 36.3331 154.73 36.288 154.607 36.2092V35.6808C154.72 35.7596 154.843 35.8046 154.989 35.838C155.123 35.8718 155.258 35.8943 155.404 35.8943C155.55 35.8943 155.673 35.8718 155.796 35.8271C155.909 35.7821 156.021 35.7033 156.133 35.5907C156.246 35.4784 156.357 35.3321 156.47 35.141C156.582 34.9609 156.705 34.7248 156.84 34.4437L153.844 28.3367H154.461L157.121 33.8026L159.724 28.3367H160.341L157.378 34.4774C157.199 34.8486 157.031 35.1635 156.885 35.4109C156.728 35.6582 156.571 35.8493 156.425 35.9956C156.279 36.142 156.122 36.2542 155.965 36.3105C155.796 36.3781 155.629 36.4119 155.437 36.4119ZM107.411 28.3367V36.3218H106.838V32.498H101.812V36.3218H101.239V28.3367H101.812V31.9804H106.838V28.3367H107.411ZM114.816 35.8046V36.3218H109.509V28.3367H114.715V28.8539H110.081V31.9916H114.132V32.4867H110.081V35.8046H114.816ZM121.134 26.0198C121.123 26.3347 120.988 26.5932 120.719 26.7846C120.449 26.987 120.056 27.0883 119.54 27.0883C119.024 27.0883 118.632 26.987 118.362 26.7846C118.093 26.5932 117.959 26.3347 117.947 26.0198H118.329C118.329 26.2108 118.441 26.3684 118.676 26.5144C118.901 26.6608 119.193 26.7396 119.54 26.7396C119.889 26.7396 120.169 26.6721 120.404 26.5369C120.629 26.4022 120.753 26.2333 120.763 26.0198H121.134ZM116.948 35.4672L122.177 28.3367H122.66V36.3218H122.088V29.3039L116.926 36.3218H116.376V28.3367H116.948V35.4672ZM124.769 36.3218V28.3367H128.046C128.383 28.3367 128.697 28.4042 128.977 28.5502C129.258 28.6966 129.505 28.8764 129.718 29.1125C129.92 29.3489 130.077 29.6188 130.2 29.9112C130.313 30.2148 130.369 30.5072 130.369 30.8109C130.369 31.137 130.313 31.4406 130.212 31.7443C130.1 32.0479 129.943 32.3065 129.752 32.543C129.55 32.7791 129.314 32.9589 129.034 33.094C128.753 33.2403 128.45 33.3075 128.113 33.3075H125.342V36.3218H124.769ZM125.342 32.7791H128.091C128.349 32.7791 128.585 32.7228 128.798 32.6102C129.011 32.5092 129.191 32.3628 129.336 32.1718C129.482 31.9916 129.595 31.7781 129.673 31.542C129.752 31.3059 129.785 31.0695 129.785 30.8109C129.785 30.5522 129.741 30.2936 129.651 30.0572C129.55 29.8211 129.426 29.6188 129.269 29.4386C129.101 29.2589 128.922 29.1125 128.708 29.0115C128.495 28.9102 128.259 28.8539 128.024 28.8539H125.342V32.7791ZM134.913 36.3781C134.363 36.3781 133.858 36.2655 133.399 36.0294C132.938 35.7933 132.546 35.4897 132.22 35.1185C131.894 34.7473 131.637 34.3086 131.457 33.8251C131.278 33.3413 131.188 32.8354 131.188 32.329C131.188 31.8006 131.289 31.2834 131.48 30.7996C131.671 30.3161 131.928 29.8774 132.265 29.5062C132.59 29.135 132.983 28.8313 133.443 28.6065C133.903 28.3929 134.397 28.2804 134.925 28.2804C135.474 28.2804 135.991 28.393 136.45 28.6291C136.91 28.8651 137.303 29.18 137.628 29.5625C137.954 29.9449 138.201 30.3721 138.38 30.8559C138.56 31.3393 138.65 31.8344 138.65 32.329C138.65 32.8691 138.56 33.3864 138.369 33.8702C138.178 34.3536 137.91 34.7811 137.584 35.1523C137.247 35.5231 136.855 35.8271 136.394 36.0407C135.934 36.2655 135.441 36.3781 134.913 36.3781ZM131.76 32.329C131.76 32.7903 131.839 33.2291 131.996 33.645C132.142 34.0725 132.366 34.4436 132.647 34.7698C132.927 35.096 133.253 35.3658 133.645 35.5569C134.038 35.7483 134.464 35.8493 134.925 35.8493C135.407 35.8493 135.833 35.7483 136.226 35.5456C136.608 35.3433 136.933 35.0735 137.214 34.736C137.483 34.4099 137.696 34.0274 137.842 33.6112C137.987 33.1953 138.066 32.7678 138.066 32.329C138.066 31.8681 137.987 31.4294 137.831 31.0019C137.673 30.586 137.46 30.2036 137.18 29.8774C136.9 29.5512 136.563 29.2926 136.181 29.1012C135.8 28.9102 135.384 28.8088 134.925 28.8088C134.442 28.8088 134.015 28.9102 133.623 29.1125C133.23 29.3151 132.904 29.585 132.624 29.9112C132.344 30.2486 132.131 30.6311 131.985 31.0469C131.839 31.4632 131.76 31.8906 131.76 32.329ZM139.637 32.2731C139.637 31.7893 139.727 31.3168 139.895 30.8334C140.064 30.3608 140.299 29.9337 140.625 29.5625C140.95 29.1913 141.343 28.8764 141.814 28.6403C142.274 28.4042 142.813 28.2916 143.408 28.2916C144.115 28.2916 144.721 28.4489 145.226 28.7751C145.731 29.1012 146.101 29.5287 146.347 30.0347L145.876 30.3049C145.731 30.0234 145.573 29.7986 145.383 29.6075C145.192 29.4161 144.978 29.2701 144.765 29.1462C144.541 29.034 144.305 28.9552 144.07 28.8989C143.834 28.8426 143.598 28.8201 143.363 28.8201C142.857 28.8201 142.409 28.9214 142.016 29.1237C141.623 29.3377 141.298 29.6075 141.029 29.9337C140.759 30.2598 140.557 30.6311 140.423 31.0469C140.277 31.4632 140.21 31.8907 140.21 32.3065C140.21 32.7791 140.288 33.2291 140.456 33.6562C140.625 34.0837 140.849 34.4549 141.13 34.7811C141.41 35.1072 141.747 35.3771 142.14 35.5682C142.532 35.7596 142.948 35.8605 143.396 35.8605C143.632 35.8605 143.879 35.8271 144.137 35.7708C144.395 35.7145 144.631 35.6132 144.866 35.4897C145.102 35.3658 145.315 35.197 145.517 34.9947C145.719 34.8036 145.888 34.5672 146.022 34.2973L146.516 34.5337C146.381 34.8374 146.202 35.096 145.966 35.3321C145.731 35.5682 145.472 35.7596 145.192 35.9168C144.911 36.0745 144.608 36.1867 144.294 36.2655C143.969 36.3556 143.655 36.3894 143.351 36.3894C142.802 36.3894 142.308 36.2655 141.859 36.0294C141.399 35.7933 141.006 35.4784 140.681 35.0847C140.356 34.7023 140.097 34.2635 139.918 33.7688C139.727 33.285 139.637 32.7791 139.637 32.2731ZM64.4797 43.4186C64.4495 43.4471 64.4344 43.4857 64.4344 43.5336C64.4344 44.1324 64.4295 51.8998 64.4204 66.8357C64.419 66.9265 64.3453 67 64.2544 67L47.3291 66.9979C47.19 66.9979 47.1202 66.9282 47.1202 66.7882C47.1286 53.5102 47.1346 39.9416 47.1388 26.0827C47.1388 26.0761 47.1416 26.0676 47.1465 26.0581C47.1507 26.0511 47.1556 26.0458 47.1612 26.0416C47.1655 26.0363 47.1707 26.0314 47.1778 26.0271C47.1869 26.0219 47.1953 26.019 47.2024 26.019C61.0294 26.0299 74.5664 26.038 87.8143 26.0437C87.9536 26.0437 88.0235 26.1137 88.0235 26.2534L88.007 43.2169C88.007 43.3081 87.934 43.3823 87.8431 43.3834C72.9415 43.3781 65.1916 43.3746 64.5945 43.3732C64.5468 43.3732 64.5082 43.3883 64.4797 43.4186Z" fill="url(#paint0_linear_22_403)"/>
<defs>
<linearGradient id="paint0_linear_22_403" x1="0" y1="33.5" x2="268" y2="33.5" gradientUnits="userSpaceOnUse">
<stop stop-color="#00B9E7"/>
<stop offset="1" stop-color="#0098D4"/>
</linearGradient>
</defs>
</svg>
